<?xml version="1.0" encoding="UTF-8"?>
<svg width="53px" height="14px" viewBox="0 0 53 14" version="1.1" xmlns="http://www.w3.org/2000/svg" xmlns:xlink="http://www.w3.org/1999/xlink">
    <!-- Generator: Sketch 59.1 (86144) - https://sketch.com -->
    <title>LUMA</title>
    <desc>Created with Sketch.</desc>
    <g id="Screenshots" stroke="none" stroke-width="1" fill="none" fill-rule="evenodd">
        <path d="M2.708,10.588 L2.708,0.4 L0.08,0.4 L0.08,13 L7.658,13 L7.658,10.588 L2.708,10.588 Z M17.208,0.4 L17.208,8.32 C17.208,10.174 16.002,10.714 14.976,10.714 C13.932,10.714 12.726,10.174 12.726,8.32 L12.726,0.4 L10.098,0.4 L10.098,8.32 C10.098,11.434 12.258,13.18 14.976,13.18 C17.676,13.18 19.836,11.434 19.836,8.32 L19.836,0.4 L17.208,0.4 Z M36.874,0.4 L33.994,0.4 L29.926,9.652 L25.876,0.4 L22.996,0.4 L22.996,13 L25.624,13 L25.624,5.458 L25.714,5.458 L28.99,13 L30.88,13 L34.156,5.458 L34.246,5.458 L34.246,13 L36.874,13 L36.874,0.4 Z M49.664,13 L52.454,13 L47.198,0.4 L44.57,0.4 L39.314,13 L42.104,13 L43.004,10.75 L48.764,10.75 L49.664,13 Z M43.886,8.59 L45.884,3.604 L47.882,8.59 L43.886,8.59 Z" id="LUMA" fill="#000000" fill-rule="nonzero"></path>
    </g>
</svg>