<?xml version="1.0" encoding="UTF-8"?>
<svg width="238px" height="49px" viewBox="0 0 238 49" version="1.1" xmlns="http://www.w3.org/2000/svg" xmlns:xlink="http://www.w3.org/1999/xlink">
    <!-- Generator: Sketch 58 (84663) - https://sketch.com -->
    <title>new-lenovo-logo</title>
    <desc>Created with Sketch.</desc>
    <g id="new-lenovo-logo" stroke="none" stroke-width="1" fill="none" fill-rule="evenodd">
        <path d="M99.0734823,11 C94.8417529,11 90.0297397,12.9950351 87.0898325,16.988116 L87.0918063,16.9800877 L87.0898325,16.9820948 L87.0918063,11.6272117 L77,11.6272117 L77,49 L87.0898325,49 L87.0898325,27.7340094 C87.0898325,23.9065124 90.0080284,19.8391697 95.4111811,19.8391697 C99.5866585,19.8391697 103.907207,22.7925844 103.907207,27.7340094 L103.907207,49 L114,49 L114,25.8333069 C114,17.2369936 107.952417,11 99.0734823,11" id="Fill-17" fill="#000000"></path>
        <polyline id="Fill-18" fill="#000000" points="187.278136 12 178.001004 37.2116418 168.722867 12 157 12 172.376918 49 183.623082 49 199 12 187.278136 12"></polyline>
        <path d="M66.271,37.596 C61.967,40.781 59.508,41.541 55.583,41.541 C52.051,41.541 49.286,40.444 47.336,38.521 L73.479,27.676 C72.909,23.634 71.375,20.024 69.015,17.279 C65.579,13.289 60.496,11.179 54.305,11.179 C43.061,11.179 34.582,19.474 34.582,30.43 C34.582,41.67 43.081,49.679 55.432,49.679 C62.352,49.679 69.428,46.399 72.738,42.567 L66.271,37.596 Z M46.625,23.026 C48.367,20.687 51.14,19.315 54.491,19.315 C58.175,19.315 60.971,21.419 62.417,24.525 L44.55,31.938 C44.063,28.134 45.036,25.158 46.625,23.026 L46.625,23.026 Z" id="Fill-19" fill="#000000"></path>
        <polyline id="Fill-21" fill="#000000" points="33.608 39.656 10.365 39.656 10.365 0.668 0 0.668 0 49.046 33.608 49.046 33.608 39.656"></polyline>
        <path d="M216.932048,49 C205.75687,49 197,40.774926 197,30 C197,19.3455084 205.816828,11 217.068952,11 C228.245128,11 237,19.2240869 237,30 C237,40.6515301 228.18517,49 216.932048,49 M216.932048,19.6505429 C211.226042,19.6505429 207.081943,23.923001 207.081943,30 C207.081943,35.8025666 211.47087,40.3494571 217.068952,40.3494571 C222.777955,40.3494571 226.920056,35.9595262 226.920056,30 C226.920056,24.1974334 222.532128,19.6505429 216.932048,19.6505429" id="Fill-23" fill="#000000"></path>
        <path d="M138.931048,49 C127.754872,49 119,40.774926 119,30 C119,19.3455084 127.81483,11 139.069951,11 C150.24313,11 159,19.2240869 159,30 C159,40.6515301 150.183172,49 138.931048,49 M138.931048,19.6505429 C133.224043,19.6505429 129.081943,23.923001 129.081943,30 C129.081943,35.8025666 133.469871,40.3494571 139.069951,40.3494571 C144.776956,40.3494571 148.918057,35.9595262 148.918057,30 C148.918057,24.1974334 144.531128,19.6505429 138.931048,19.6505429" id="Fill-24" fill="#000000"></path>
    </g>
</svg>