<?xml version="1.0" encoding="UTF-8"?>
<svg width="418px" height="128px" viewBox="0 0 418 128" version="1.1" xmlns="http://www.w3.org/2000/svg" xmlns:xlink="http://www.w3.org/1999/xlink">
    <!-- Generator: Sketch 58 (84663) - https://sketch.com -->
    <title>new-logitech-logo-2015</title>
    <desc>Created with Sketch.</desc>
    <defs>
        <polygon id="path-1" points="0.06 0.0820395067 417.355868 0.0820395067 417.355868 127.012337 0.06 127.012337"></polygon>
    </defs>
    <g id="new-logitech-logo-2015" stroke="none" stroke-width="1" fill="none" fill-rule="evenodd">
        <g id="Group-3">
            <mask id="mask-2" fill="white">
                <use xlink:href="#path-1"></use>
            </mask>
            <g id="Clip-2"></g>
            <path d="M93.404,93.922 C98.658,93.951 103.922,93.912 109.176,93.931 C109.225,101.039 113.597,108.137 120.457,110.487 C128.536,113.897 138.797,110.011 142.534,102.08 C143.922,99.572 144.239,96.697 144.566,93.902 C149.86,93.951 155.163,93.961 160.467,93.902 C160.328,103.716 156.145,113.639 148.274,119.716 C135.842,129.758 116.165,129.45 104.249,118.695 C97.161,112.608 93.156,103.24 93.404,93.922 Z M166.316,28.028 C171.51,27.989 176.715,27.999 181.909,28.028 C181.889,48.678 181.919,69.327 181.899,89.986 C176.695,89.936 171.48,89.956 166.276,89.986 C166.326,69.327 166.256,48.678 166.316,28.028 L166.316,28.028 Z M298.548,39.022 C308.283,25.838 327.99,22.348 342.127,30.209 C345.983,32.291 349.284,35.275 352.119,38.596 C348.511,42.214 344.902,45.833 341.175,49.322 C337.339,45.337 332.531,41.709 326.801,41.352 C318.91,40.41 310.821,45.664 308.64,53.337 C305.587,62.06 310.384,72.786 319.296,75.681 C327.217,78.576 335.98,74.779 341.046,68.484 C344.843,71.964 348.382,75.701 352.05,79.309 C340.997,93.832 317.849,95.993 303.921,84.435 C290.33,73.956 288.04,52.435 298.548,39.022 L298.548,39.022 Z M244.878,42.948 C241.656,45.208 239.763,48.787 238.543,52.445 C249.299,52.613 260.055,52.593 270.811,52.464 C269.75,48.846 267.936,45.357 264.863,43.057 C259.123,38.824 250.717,38.943 244.878,42.948 L244.878,42.948 Z M233.24,34.174 C245.245,23.369 265.805,23.082 277.304,34.799 C285.165,42.7 287.663,54.348 286.97,65.153 C270.96,65.262 254.95,65.074 238.94,65.253 C240.714,70.873 244.957,75.82 250.846,77.238 C259.143,79.587 267.579,75.324 273.299,69.466 C276.799,73.044 280.387,76.524 284.035,79.944 C271.832,92.98 249.884,96.043 235.084,85.763 C218.707,74.145 218.37,47.161 233.24,34.174 L233.24,34.174 Z M121.042,42.224 C112.15,45.039 107.035,55.557 110.108,64.331 C112.745,73.599 123.738,79.072 132.749,75.681 C142.197,72.707 147.213,61.039 143.178,52.058 C139.946,43.552 129.498,39.141 121.042,42.224 L121.042,42.224 Z M100.105,38.814 C108.383,27.79 123.867,23.468 136.873,27.582 C144.398,28.564 152.06,27.701 159.634,28.048 C159.585,32.241 159.585,36.445 159.614,40.638 C158.246,41.074 156.888,41.52 155.53,41.966 C164.254,55.399 160.814,75.106 147.996,84.732 C134.881,95.23 113.904,94.031 102.346,81.718 C91.243,70.546 90.341,51.116 100.105,38.814 L100.105,38.814 Z M50.549,41.788 C39.664,44.048 33.746,57.748 39.337,67.305 C43.699,76.375 56.378,79.419 64.586,73.768 C72.685,68.752 74.965,56.866 69.592,49.074 C65.607,42.938 57.587,39.994 50.549,41.788 L50.549,41.788 Z M48.864,26.541 C62.336,24.063 77.186,30.298 83.976,42.383 C88.328,49.818 89.27,58.938 87.337,67.255 C84.888,77.386 77.117,85.961 67.372,89.58 C53.969,94.804 37.236,90.958 28.314,79.428 C17.667,66.462 19.402,45.367 32.17,34.422 C36.829,30.259 42.718,27.582 48.864,26.541 L48.864,26.541 Z M196.531,8.985 C201.745,8.876 206.96,8.906 212.184,8.965 C212.135,15.33 212.125,21.694 212.194,28.048 C214.99,28.009 217.795,28.009 220.591,28.009 C220.541,32.628 220.561,37.248 220.591,41.877 C217.785,41.897 214.97,41.887 212.164,41.907 C212.115,57.937 212.174,73.956 212.135,89.986 C206.93,89.956 201.726,89.956 196.521,89.966 C196.571,73.946 196.472,57.927 196.571,41.907 C193.855,41.887 191.138,41.877 188.422,41.927 C188.303,37.297 188.382,32.668 188.343,28.038 C191.079,27.999 193.825,28.009 196.561,27.999 C196.501,21.654 196.541,15.32 196.531,8.985 L196.531,8.985 Z M357.353,1.927 C362.637,2.056 367.931,1.957 373.215,2.006 C373.234,12.504 373.264,23.012 373.195,33.52 C383.009,23.409 401.447,23.439 410.796,34.155 C415.752,39.686 417.299,47.329 417.318,54.556 C417.378,66.363 417.358,78.179 417.318,89.986 C412.035,89.946 406.751,89.956 401.477,89.976 C401.497,78.497 401.487,67.017 401.487,55.547 C401.636,50.373 399.266,44.583 394.191,42.541 C388.273,40.172 380.501,41.302 376.367,46.447 C374.345,49.015 373.205,52.266 373.234,55.538 C373.234,67.017 373.215,78.497 373.244,89.966 C367.961,89.956 362.677,89.946 357.403,89.986 C357.324,60.633 357.413,31.28 357.353,1.927 L357.353,1.927 Z M0.021,2.006 C5.206,1.947 10.4,2.036 15.585,1.957 C15.615,31.3 15.645,60.653 15.585,90.006 C10.391,89.927 5.196,89.946 0.002,89.996 C0.011,60.663 -0.018,31.339 0.021,2.006 L0.021,2.006 Z M170.638,0.648 C177.29,-1.741 185.181,3.761 184.417,10.997 C184.546,18.938 174.365,23.597 168.13,19.087 C161.22,14.834 162.806,2.898 170.638,0.648 L170.638,0.648 Z" id="Fill-1" fill="#0B0B09" mask="url(#mask-2)"></path>
        </g>
    </g>
</svg>