<?xml version="1.0" encoding="UTF-8"?>
<svg width="161px" height="24px" viewBox="0 0 161 24" version="1.1" xmlns="http://www.w3.org/2000/svg" xmlns:xlink="http://www.w3.org/1999/xlink">
    <!-- Generator: Sketch 58 (84663) - https://sketch.com -->
    <title>samsung-group-vector-logo</title>
    <desc>Created with Sketch.</desc>
    <defs>
        <polygon id="path-1" points="0.127 0.36 139.385 0.36 139.385 23.6286461 0.127 23.6286461"></polygon>
    </defs>
    <g id="samsung-group-vector-logo" stroke="none" stroke-width="1" fill="none" fill-rule="evenodd">
        <g id="Group-74" transform="translate(75.000000, 0.000000)" fill="#000000">
            <path d="M13.014,11.254 C13.014,11.254 11.455,10.289 10.49,9.917 C10.49,9.917 7.506,8.534 6.914,7.876 C6.914,7.876 5.752,6.78 6.432,5.507 C6.432,5.507 6.717,4.674 7.946,4.674 C7.946,4.674 9.545,4.762 9.545,6.077 L9.545,7.933 L15.28,7.933 L15.27,5.2 C15.27,5.2 15.71,0.726 8.515,0.529 C8.515,0.529 2.857,0.157 1.234,3.205 C1.234,3.205 0.597,3.884 0.597,6.253 L0.597,7.964 C0.597,7.964 0.532,9.938 1.541,11.209 C1.541,11.209 2.111,12.044 3.515,12.964 C3.515,12.964 6.366,14.499 8.077,15.378 C8.077,15.378 9.804,16.364 9.576,17.932 C9.576,17.932 9.437,19.542 7.768,19.477 C7.768,19.477 6.243,19.407 6.243,17.829 L6.243,15.975 L0.133,15.975 L0.133,18.669 C0.133,18.669 -0.039,23.819 7.814,23.819 C7.814,23.819 15.315,23.971 15.666,18.532 L15.666,16.34 C15.666,16.34 15.929,13.008 13.014,11.254" id="Fill-73"></path>
        </g>
        <polyline id="Fill-75" fill="#000000" points="59.0508231 1 57.1591198 13.0897008 56.7167371 13.0897008 54.9097664 1.10851793 45.4719406 1.10851793 45 23 50.5874215 23 50.6544193 6.50527518 51.0938462 6.50527518 54.0555442 22.9979904 59.933618 22.9979904 62.8588612 6.51130395 63.2480397 6.51130395 63.3830206 23 69 23 68.3960343 1 59.0508231 1"></polyline>
        <g id="Group-79" transform="translate(21.000000, 0.000000)">
            <mask id="mask-2" fill="white">
                <use xlink:href="#path-1"></use>
            </mask>
            <g id="Clip-77"></g>
            <polyline id="Fill-76" fill="#000000" mask="url(#mask-2)" points="3.9 1.26 0.127 23.042 6.232 23.042 8.467 6.153 8.969 6.153 11.203 23.042 17.307 23.042 13.535 1.26 3.9 1.26"></polyline>
            <path d="M132.002,10.954 L132.002,14.167 L133.568,14.167 L133.568,17.616 C133.568,19.301 132.127,19.333 132.127,19.333 C130.375,19.333 130.441,17.731 130.441,17.731 L130.441,5.801 C130.441,4.571 131.996,4.506 131.996,4.506 C133.489,4.506 133.5,5.972 133.5,5.972 L133.5,7.786 L139.247,7.786 C139.434,4.246 138.729,3.388 138.729,3.388 C137.303,0.186 131.91,0.361 131.91,0.361 C123.62,0.361 124.54,6.721 124.54,6.721 L124.54,18.256 C124.717,24.221 132.884,23.616 133.023,23.608 C136.658,23.206 137.754,22.053 137.754,22.053 C138.764,21.303 139.025,20.264 139.025,20.264 C139.313,19.659 139.385,17.731 139.385,17.731 L139.385,10.954 L132.002,10.954" id="Fill-78" fill="#000000" mask="url(#mask-2)"></path>
        </g>
        <polyline id="Fill-80" fill="#000000" points="133.775266 14.3889016 133.530754 14.3889016 127.823843 1.0010048 121 1.0010048 121 23 126.554336 23 126.2218 9.61411281 126.469246 9.61411281 132.379591 23 139 23 139 1 133.375245 1 133.775266 14.3889016"></polyline>
        <path d="M106.787714,17.7727992 C106.787714,17.7727992 106.872394,19.6078507 105.173682,19.6078507 C105.173682,19.6078507 103.384168,19.7028199 103.384168,17.8187521 L103.365804,1 L97.0106831,1 L97.0106831,17.6849782 C97.0106831,17.6849782 96.3577248,24 105.261424,24 C105.261424,24 113,24.0908089 113,17.9739707 L113,1 L106.787714,1 L106.787714,17.7727992" id="Fill-81" fill="#000000"></path>
        <path d="M13.2600433,11.5978218 C13.2600433,11.5978218 11.6568899,10.6464216 10.6632848,10.2792838 C10.6632848,10.2792838 7.59289082,8.91534701 6.98334244,8.26496038 C6.98334244,8.26496038 5.78586818,7.18131163 6.48705474,5.92791099 C6.48705474,5.92791099 6.77947322,5.1057986 8.04387425,5.1057986 C8.04387425,5.1057986 9.69233194,5.19166147 9.69233194,6.48947395 L9.69233194,8.32121537 L15.5983615,8.32121537 L15.5870354,5.62294973 C15.5870354,5.62294973 16.0380189,1.20742651 8.63180013,1.0139883 C8.63180013,1.0139883 8.07476352,0.979445763 7.25516807,1.01892295 C7.25516807,1.01892295 2.76901556,1.24986448 1.16586214,3.60862633 C1.15659536,3.62540413 1.14321,3.63922115 1.13497286,3.65501202 C1.13497286,3.65501202 0.479090572,4.32513725 0.479090572,6.66317357 L0.479090572,8.35181019 C0.479090572,8.35181019 0.411134165,10.2990224 1.45107312,11.5543969 C1.45107312,11.5543969 2.03796936,12.3784831 3.48358748,13.2864584 C3.48358748,13.2864584 6.41703905,14.8013954 8.17875742,15.6669327 C8.17875742,15.6669327 9.95900935,16.6400453 9.72425086,18.1895249 C9.72425086,18.1895249 9.5801009,19.7784816 7.8636868,19.7143312 C7.8636868,19.7143312 6.2924523,19.6452461 6.2924523,18.0878711 L6.2924523,16.2561297 L0.00030679543,16.2561297 L0.00030679543,18.916892 C0.00030679543,18.916892 -0.175762077,23.9995797 7.90796143,23.9995797 C7.90796143,23.9995797 15.6302804,24.149593 15.9937442,18.7816826 L15.9937442,16.6183329 C15.9937442,16.6183329 16.2635106,13.3298833 13.2600433,11.5978218" id="Fill-82" fill="#000000"></path>
    </g>
</svg>