<?xml version="1.0" encoding="UTF-8"?>
<svg width="187px" height="33px" viewBox="0 0 187 33" version="1.1" xmlns="http://www.w3.org/2000/svg" xmlns:xlink="http://www.w3.org/1999/xlink">
    <!-- Generator: Sketch 58 (84663) - https://sketch.com -->
    <title>sony-corporation-vector-logo</title>
    <desc>Created with Sketch.</desc>
    <g id="sony-corporation-vector-logo" stroke="none" stroke-width="1" fill="none" fill-rule="evenodd">
        <path d="M184.007366,32.6380852 C182.546826,32.6380852 181.369344,31.4608101 181.369344,29.9910573 C181.369344,28.5391899 182.546826,27.3608627 184.007366,27.3608627 C185.46054,27.3608627 186.639074,28.5391899 186.639074,29.9910573 C186.639074,31.4608101 185.46054,32.6380852 184.007366,32.6380852 Z M184.007366,27 C182.342687,27 181,28.3424513 181,29.9910573 C181,31.6564966 182.342687,33 184.007366,33 C185.665731,33 187,31.6564966 187,29.9910573 C187,28.3424513 185.665731,27 184.007366,27 L184.007366,27 Z" id="Fill-72" fill="#000000"></path>
        <path d="M184.171689,30.3282083 L183.461538,30.3282083 L183.461538,29.2673361 L184.545202,29.2673361 C185.015067,29.2673361 185.530135,29.3228742 185.530135,29.786947 C185.530135,30.3978663 184.7046,30.3282083 184.171689,30.3282083 Z M186,29.7935362 C186,29.5412614 185.858446,29.2739253 185.575337,29.1477879 C185.291039,29.0141199 184.971055,29 184.651071,29 L183,29 L183,32 L183.461538,32 L183.461538,30.6153122 L184.313243,30.6153122 L185.396907,32 L185.947661,32 L184.802141,30.6153122 C185.476606,30.6021337 186,30.3837465 186,29.7935362 L186,29.7935362 Z" id="Fill-73" fill="#000000"></path>
        <path d="M166.940629,13.6605965 L172.741307,7.5330249 C173.076554,7.08317748 173.243681,6.76818585 173.243681,6.49847426 C173.243681,6.04862683 172.852724,5.86849099 171.624147,5.86849099 L170.159801,5.86849099 L170.159801,2 L186,2 L186,5.86849099 L183.917884,5.86849099 C181.514447,5.86849099 181.066787,6.22777832 177.715306,10.411261 L168.538277,20.2153755 L168.538277,26.1982479 C168.538277,27.7289103 169.32019,28.2673491 171.5565,28.2673491 L175.021388,28.2673491 L175.021388,32 L152.836355,32 L152.836355,28.2673491 L156.301243,28.2673491 C158.535564,28.2673491 159.318472,27.7289103 159.318472,26.1982479 L159.318472,20.2153755 L148.51196,8.38743971 C146.724305,6.31932277 146.97201,5.86849099 142,5.86849099 L142,2 L162.064119,2 L162.064119,5.86849099 L160.635587,5.86849099 C159.182184,5.86849099 158.567398,6.13918693 158.567398,6.6786101 C158.567398,7.12845753 159.014063,7.48872921 159.293602,7.84703219 L164.761022,13.7432818 C165.407642,14.4116547 166.199503,14.4982774 166.940629,13.6605965" id="Fill-74" fill="#000000"></path>
        <path d="M32.3220553,1.94823595 L37.2028251,1.94823595 L37.2028251,12.7798562 L32.6953378,12.7798562 C32.2959656,10.6147174 30.9202388,9.77217026 29.6629187,8.63626262 C27.3981372,6.58767787 22.4942881,4.88184091 18.3681109,4.88184091 C13.0448207,4.88184091 8.55138167,6.50767046 8.55138167,8.89900299 C8.55138167,15.5336914 39,10.2532025 39,22.8005371 C39,29.3443529 32.4775897,33 20.7653476,33 C16.7104153,33 10.5733289,31.7613668 6.95288941,29.8688459 C5.81799002,29.2228601 5.3363351,30.478285 5.12460763,32.0527518 L0.118406834,32.0527518 L0.118406834,20.8596166 L4.64596305,20.8596166 C5.64339011,23.7033367 7.02012041,24.28907 8.28546802,25.4180634 C10.4810117,27.4034324 15.7069675,28.8494922 20.4984305,28.8020804 C27.7242577,28.7329382 30.2097978,27.1772386 30.2097978,24.9202395 C30.2097978,22.6642282 27.7513508,22.1229435 19.8331447,20.9040652 L13.1110482,19.8214958 C5.52397983,18.6934901 0,17.0222243 0,11.0651295 C0,4.88184091 6.98801009,1 18.0359697,1 C22.6919673,1 26.5883549,1.61339013 30.3261977,3.69358274 C31.3637627,4.35438467 32.3351001,4.43537982 32.3220553,1.94823595" id="Fill-75" fill="#000000"></path>
        <path d="M127.174258,19.8448615 L127.270929,7.84722405 C127.270929,6.27319858 126.442748,5.73375771 124.072816,5.73375771 L121.289292,5.73375771 L121.289292,2 L139,2 L139,5.73375771 L136.690861,5.73375771 C134.319932,5.73375771 133.490755,6.27319858 133.490755,7.84722405 L133.490755,32 L126.557358,31.9478278 L104.111768,10.9509778 L104.111768,26.1980575 C104.111768,27.7287702 104.941942,28.3115238 107.309881,28.3115238 L110.390394,28.3115238 L110.390394,32 L92,32 L92,28.3115238 L95.0466285,28.3115238 C97.415564,28.3115238 98.2447413,27.7287702 98.2447413,26.1980575 L98.2447413,7.84722405 C98.2447413,6.27319858 97.415564,5.73375771 95.0466285,5.73375771 L92,5.73375771 L92,2 L107.902863,2 L127.174258,19.8448615" id="Fill-76" fill="#000000"></path>
        <path d="M66.7693381,29.0727228 C58.9077788,29.0727228 54.3888114,24.6051486 54.3888114,16.8869031 C54.3888114,9.35040282 59.1043429,4.88184091 67.1624662,4.88184091 C74.8916456,4.88184091 79.4116159,9.44028768 79.4116159,17.2029818 C79.4116159,24.7849184 74.8274614,29.0727228 66.7693381,29.0727228 Z M67.0932676,1 C52.889509,1 44,7.18427632 44,17.1130969 C44,26.8621477 52.7661551,33 66.6600244,33 C81.4163687,33 90,26.9520326 90,16.6162608 C90,7.31959749 80.7374204,1 67.0932676,1 L67.0932676,1 Z" id="Fill-77" fill="#000000"></path>
    </g>
</svg>