<?xml version="1.0" encoding="UTF-8"?>
<svg width="372px" height="78px" viewBox="0 0 372 78" version="1.1" xmlns="http://www.w3.org/2000/svg" xmlns:xlink="http://www.w3.org/1999/xlink">
    <!-- Generator: Sketch 58 (84663) - https://sketch.com -->
    <title>waitrose-logo</title>
    <desc>Created with Sketch.</desc>
    <g id="waitrose-logo" stroke="none" stroke-width="1" fill="none" fill-rule="evenodd">
        <polyline id="Fill-72" fill="#000000" points="65.944 77.544 47.131 32.317 28.318 77.544 0.376 9.711 11.711 9.711 28.501 53.464 47.131 7.75 65.698 53.464 82.548 9.711 93.886 9.711 65.944 77.544"></polyline>
        <path d="M138.988,75.943 L138.988,27.783 L128.877,27.783 L128.877,34.09 C125.628,29.493 119.746,26.858 113.312,26.858 C99.525,26.858 88.31,37.337 88.31,51.863 C88.31,66.751 100.382,76.744 113.312,76.744 C119.746,76.744 125.322,73.92 128.877,69.385 L128.877,75.943 L138.988,75.943 M128.877,51.738 C128.877,61.433 123.606,67.865 113.312,67.865 C105.835,67.865 98.727,62.342 98.727,51.863 C98.727,40.961 105.835,35.878 113.312,35.878 C123.606,35.878 128.877,42.059 128.877,51.738" id="Fill-73" fill="#000000"></path>
        <path d="M148.178,75.943 L158.291,75.943 L158.291,27.783 L148.178,27.783 L148.178,75.943 Z M153.266,16.331 C150.018,16.331 147.444,13.806 147.444,10.559 C147.444,7.311 150.018,4.676 153.266,4.676 C156.514,4.676 159.024,7.311 159.024,10.559 C159.024,13.806 156.514,16.331 153.266,16.331 L153.266,16.331 Z" id="Fill-74" fill="#000000"></path>
        <polyline id="Fill-75" fill="#000000" points="183.967 36.553 183.967 75.943 173.855 75.943 173.855 36.553 164.479 36.553 164.479 27.783 173.855 27.783 173.855 10.449 183.967 0.456 183.967 27.783 194.75 27.783 194.75 36.553 183.967 36.553"></polyline>
        <path d="M227.782,37.588 C226.309,36.725 224.592,35.878 221.469,35.878 C215.584,35.878 211.051,39.548 211.051,47.58 L211.051,75.943 L200.94,75.943 L200.94,27.783 L211.051,27.783 L211.051,34.529 C213.93,29.069 218.282,26.858 223.124,26.858 C226.616,26.858 231.211,27.909 234.52,30.968 L227.782,37.588" id="Fill-76" fill="#000000"></path>
        <path d="M283.542,51.738 C283.542,37.337 272.208,26.858 258.051,26.858 C243.834,26.858 232.622,37.337 232.622,51.738 C232.622,66.139 243.834,76.869 258.051,76.869 C272.208,76.869 283.542,66.139 283.542,51.738 M273.188,51.738 C273.188,60.993 267.487,67.865 258.051,67.865 C248.553,67.865 242.977,60.993 242.977,51.738 C242.977,42.482 248.553,35.878 258.051,35.878 C267.487,35.878 273.188,42.482 273.188,51.738" id="Fill-77" fill="#000000"></path>
        <path d="M304.991,76.869 C299.967,76.869 295.063,75.708 288.629,72.273 L288.629,61.982 C293.348,65.229 299.844,68.225 304.684,68.225 C308.606,68.225 311.854,67.314 311.854,63.755 C311.854,61.307 310.995,59.706 305.971,56.883 L297.208,51.988 C291.694,48.804 288.813,45.307 288.813,40.224 C288.813,32.443 294.635,26.858 305.114,26.858 C309.954,26.858 315.102,28.097 319.819,30.607 L319.819,40.584 C315.409,37.776 309.954,35.564 305.114,35.564 C301.254,35.564 298.924,37.038 298.924,39.675 C298.924,41.259 299.108,42.184 303.215,44.631 L311.61,49.479 C318.35,53.338 322.028,56.585 322.028,62.766 C322.028,71.85 314.917,76.869 304.991,76.869" id="Fill-78" fill="#000000"></path>
        <path d="M372.153,54.374 L372.153,53.636 C372.153,35.689 363.145,26.858 350.03,26.858 C337.163,26.858 326.684,36.599 326.684,51.126 C326.684,68.163 338.448,76.869 351.563,76.869 C358.489,76.869 365.35,74.782 369.456,70.5 L363.022,64.178 C360.081,66.453 356.528,67.865 351.563,67.865 C342.739,67.865 338.143,61.433 337.163,54.374 L372.153,54.374 M360.938,46.106 L337.713,46.106 C339.245,40.285 343.475,35.689 350.03,35.689 C356.282,35.689 360.631,39.972 360.938,46.106" id="Fill-79" fill="#000000"></path>
    </g>
</svg>