<?xml version="1.0" encoding="UTF-8"?>
<svg width="812px" height="204px" viewBox="0 0 812 204" version="1.1" xmlns="http://www.w3.org/2000/svg" xmlns:xlink="http://www.w3.org/1999/xlink">
    <!-- Generator: Sketch 58 (84663) - https://sketch.com -->
    <title>webflow-logo-black</title>
    <desc>Created with Sketch.</desc>
    <g id="webflow-logo-black" stroke="none" stroke-width="1" fill="none" fill-rule="evenodd">
        <path d="M490.6,1.4 L471,159.5 L467,179 C467.5,179 468.1,179.1 468.6,179.1 C489.7,178.8 504.7,160.3 507.5,137 L518.8,46.3 C522.2,18.6 505.7,1.4 490.6,1.4 Z M768.5,86.5 C768.5,86.5 755,128.9 753.9,132.4 C753.5,128.8 743.6,52.7 743.6,52.7 C720.6,52.7 708.3,69.1 701.8,86.4 C701.8,86.4 685.4,128.9 684,132.5 C683.9,129.2 681.5,86.9 681.5,86.9 C680.1,65.7 660.7,52.8 645,52.8 L663.9,168.1 C688,168 701,151.7 707.8,134.4 C707.8,134.4 722.3,96.9 722.8,95.2 C723,96.8 733.2,168.1 733.2,168.1 C757.4,168.1 770.4,152.8 777.4,136.1 L811.3,52.8 C787.5,52.8 774.9,69.1 768.5,86.5 Z M600.7,108.6 C599.3,122.7 593.1,144.1 576.1,144.1 C559,144.1 561.4,119.1 563.1,107.2 C564.9,94.5 572,76.4 587.3,76.4 C601,76.4 602.3,92.7 600.7,108.6 Z M589.8,50.8 C562.9,50.8 537.5,70.6 529.7,101.7 C521.9,132.8 533.7,169.6 573.3,169.6 C612.8,169.6 635.6,131.3 635.6,99.4 C635.6,67.7 614.1,50.8 589.8,50.8 Z M468.6,52.8 L445.3,52.8 L445.4,51.6 C447,36.4 450.6,28.4 462.5,27.1 C470.6,26.3 474.2,22.1 475.1,17.5 C475.8,13.9 478,1.4 478,1.4 C431.2,1.1 416.5,21.3 412.7,52.1 L412.6,52.8 L412.1,52.8 C404.5,52.8 396.1,61.4 394.7,72.3 L394.2,76.3 L409.8,76.3 L396.7,184.5 L392.7,203.9 C393.2,203.9 393.8,204 394.3,204 C416.2,203.2 430.2,185.9 433.3,160.8 L443.5,76.3 L450.8,76.3 C458,76.3 466.4,69.1 467.9,57.1 L468.6,52.8 Z M349.7,109.6 C346.2,129.9 334.9,143.7 324,143.7 C313,143.7 308.3,138.8 308.3,138.8 C310.4,121 311.7,110.1 315.7,100.7 C319.7,91.3 329.2,76.3 339.1,76.3 C348.8,76.3 353.2,89.2 349.7,109.6 Z M352.8,50.1 C337.9,50.1 326.5,58.2 316.9,70.1 L316.9,70 L325.5,0.7 C305.7,0.7 289.6,17.9 286.5,43.5 L271.5,167.2 C282.9,167.2 295,163.9 301.5,155.5 C307.3,163 316,169 328.9,169 C362.3,169 385.2,130.2 385.2,93.8 C385,60.6 368.9,50.1 352.8,50.1 Z M126.5,86.5 C126.5,86.5 113,128.9 111.9,132.4 C111.5,128.8 101.6,52.7 101.6,52.7 C78.6,52.7 66.3,69.1 59.8,86.4 C59.8,86.4 43.4,128.9 42,132.5 C41.9,129.2 39.5,86.9 39.5,86.9 C38.1,65.7 18.7,52.8 3,52.8 L22,168.1 C46.1,168 59.1,151.7 65.9,134.4 C65.9,134.4 80.4,96.9 81,95.2 C81.1,96.8 91.4,168.1 91.4,168.1 C115.6,168.1 128.6,152.8 135.6,136.1 L169.5,52.8 C145.6,52.8 133,69.1 126.5,86.5 Z M232.9,82.6 C232.5,87.1 230.7,94.8 198.9,99.1 C205.6,75.3 218.4,73.5 224.3,73.5 C229.8,73.5 233.3,77.8 232.9,82.6 Z M264,80.2 C264,65.7 249.9,50.3 225.5,50.3 C198.1,50.3 168,70.4 163.4,110.5 C158.7,151 183.9,169 209.3,169 C234.7,169 248,159.1 261.6,145.9 C249.9,131.2 234.8,138 231.9,139.5 C228.7,141.1 224.6,143.3 216.2,143.3 C206.4,143.3 196.4,138.9 196.4,120.6 C259.2,114.4 264,94.7 264,80.2 L264,80.2 Z" id="Fill-1" fill="#000000"></path>
    </g>
</svg>